<svg xmlns="http://www.w3.org/2000/svg" width="194.05" height="77.65" viewBox="0 0 194.05 77.65"><title>MIT Libraries Logo</title><path d="M0,0H11.9l4.35,15.65q0.25,0.85.58,2.22t0.67,2.68q0.4,1.55.8,3.25h0.1q0.35-1.7.75-3.25,0.3-1.3.65-2.67t0.6-2.22L24.8,0h12V35.75H28.7V13.66q0-1.4.1-3.05H28.7q-0.4,1.55-.7,2.85t-0.53,2.22q-0.28,1.08-.42,1.58l-5.1,18.49h-7.3L9.55,17.3Q9.4,16.8,9.1,15.7T8.55,13.45q-0.3-1.3-.65-2.85H7.8v3.05q0,1.2.08,2.4a9.26,9.26,0,0,1,0,1.75v18h-8V0H0ZM40,0h8.85V35.75H40V0h0ZM62.1,7.45H51.7V0H81.45V7.45H70.95v28.3H62.1V7.45ZM0,41H8.85V69.25H25.52v7.5H0V41Zm28.7,0h8.15v6.6H28.7V41Zm0,10.15h8.15v25.6H28.7V51.15Zm27,26.4a9.84,9.84,0,0,1-4.55-1,7.87,7.87,0,0,1-3.2-3h-0.1v3.2h-7.8V41H48.2V54h0.15a9.45,9.45,0,0,1,2.9-2.55,8.63,8.63,0,0,1,4.37-1,9.89,9.89,0,0,1,4.53,1A10.16,10.16,0,0,1,63.6,54.3a13.44,13.44,0,0,1,2.2,4.3A17.91,17.91,0,0,1,66.58,64a19.49,19.49,0,0,1-.78,5.72A12.5,12.5,0,0,1,63.6,74a9.47,9.47,0,0,1-3.45,2.67A10.66,10.66,0,0,1,55.7,77.55ZM53.4,71.1a4.14,4.14,0,0,0,3.67-1.92,9.45,9.45,0,0,0,1.28-5.27,9.74,9.74,0,0,0-1.28-5.3,4.19,4.19,0,0,0-3.77-2,4.44,4.44,0,0,0-4,2.1A9.66,9.66,0,0,0,48,64a8.53,8.53,0,0,0,1.45,5.17,4.69,4.69,0,0,0,4,2h0Zm15.11-20h7.8v4h0.15a9.63,9.63,0,0,1,3-3.35,7.29,7.29,0,0,1,4-1,4.41,4.41,0,0,1,1.6.2v7h-0.2a7.36,7.36,0,0,0-6,1.27q-2.16,1.78-2.16,6v11.5H68.51V51.15Zm26,26.3a12,12,0,0,1-3.53-.5,7.54,7.54,0,0,1-2.77-1.5A7,7,0,0,1,86.36,73a8.11,8.11,0,0,1-.66-3.4,7.29,7.29,0,0,1,.78-3.52,6.67,6.67,0,0,1,2.12-2.35,10.55,10.55,0,0,1,3.1-1.43,25.72,25.72,0,0,1,3.77-.75,24.65,24.65,0,0,0,5-1,1.92,1.92,0,0,0,1.45-1.85,2.57,2.57,0,0,0-.83-2A3.92,3.92,0,0,0,98.42,56a4.45,4.45,0,0,0-3,.85,3.67,3.67,0,0,0-1.2,2.45h-7.5a8.46,8.46,0,0,1,.8-3.4,8.17,8.17,0,0,1,2.17-2.8,10.56,10.56,0,0,1,3.58-1.9,16.34,16.34,0,0,1,5-.7,19.62,19.62,0,0,1,4.9.52,9.73,9.73,0,0,1,3.4,1.58,7.29,7.29,0,0,1,2.45,3,10.63,10.63,0,0,1,.8,4.25V72.75a13,13,0,0,0,.17,2.42,1.78,1.78,0,0,0,.73,1.23v0.35h-7.9a3.37,3.37,0,0,1-.5-1.12,14.64,14.64,0,0,1-.35-1.72h-0.1a8.47,8.47,0,0,1-2.73,2.54A9.92,9.92,0,0,1,94.46,77.45Zm2.6-5.2A5.45,5.45,0,0,0,100.79,71a4.23,4.23,0,0,0,1.42-3.35v-3a11.85,11.85,0,0,1-1.87.73Q99.26,65.71,98,66a10.45,10.45,0,0,0-3.4,1.27,2.47,2.47,0,0,0-1.05,2.17,2.42,2.42,0,0,0,1,2.2,4.5,4.5,0,0,0,2.5.55v0.05Zm15.87-21h7.77v4h0.15a9.63,9.63,0,0,1,3-3.35,7.29,7.29,0,0,1,4-1,4.41,4.41,0,0,1,1.6.2v7h-0.2a7.36,7.36,0,0,0-6,1.27q-2.23,1.83-2.23,6V76.75h-8.15V51.15ZM131.87,41.1H140v6.6h-8.15V41.1Zm0,10.15H140v25.5h-8.15V51.25Zm24,26.35a15.16,15.16,0,0,1-5.7-1,12.12,12.12,0,0,1-4.3-2.85,12.66,12.66,0,0,1-2.7-4.33,15.06,15.06,0,0,1-1-5.4,14.72,14.72,0,0,1,1-5.33,12.71,12.71,0,0,1,2.7-4.3A12.46,12.46,0,0,1,150,51.45a14.58,14.58,0,0,1,10.28-.17,12.28,12.28,0,0,1,3.83,2.35A12.76,12.76,0,0,1,167.53,59a20.72,20.72,0,0,1,1.08,7.13H150.2a7.52,7.52,0,0,0,1.8,4.1,5.14,5.14,0,0,0,4,1.5,4.81,4.81,0,0,0,2.65-.68,4.3,4.3,0,0,0,1.6-1.87h8a9.47,9.47,0,0,1-1.5,3.33,10.65,10.65,0,0,1-2.8,2.73A12.12,12.12,0,0,1,160.37,77a15.22,15.22,0,0,1-4.52.5Zm4.5-16.3a6,6,0,0,0-1.55-3.65,4.39,4.39,0,0,0-3.3-1.35,4.66,4.66,0,0,0-3.6,1.35,7,7,0,0,0-1.65,3.65h10.1Zm21.9,16.35q-5.65,0-8.95-2.42a8.35,8.35,0,0,1-3.52-6.78h7.7a4.15,4.15,0,0,0,1.45,2.85,5.09,5.09,0,0,0,3.25,1,5.63,5.63,0,0,0,2.92-.65,2.09,2.09,0,0,0,1.08-1.9,1.82,1.82,0,0,0-.55-1.37,4.08,4.08,0,0,0-1.45-.85,10.92,10.92,0,0,0-2.08-.5q-1.17-.17-2.42-0.42-1.65-.3-3.3-0.72a10.14,10.14,0,0,1-3-1.28,6.33,6.33,0,0,1-2.12-2.27,7.45,7.45,0,0,1-.8-3.68,7.1,7.1,0,0,1,.87-3.55,7.64,7.64,0,0,1,2.35-2.66,11.18,11.18,0,0,1,3.53-1.55,17,17,0,0,1,4.28-.52q5.45,0,8.35,2.2a8,8,0,0,1,3.2,6h-7.5a3,3,0,0,0-1.33-2.37,5.48,5.48,0,0,0-2.78-.62,5.1,5.1,0,0,0-2.52.58,1.9,1.9,0,0,0-1,1.78,1.33,1.33,0,0,0,.5,1.1,4.21,4.21,0,0,0,1.35.67,14.86,14.86,0,0,0,2,.48l2.33,0.4q1.7,0.3,3.42.73a10.59,10.59,0,0,1,3.17,1.32A7.05,7.05,0,0,1,193,65.07a7.75,7.75,0,0,1,.9,4,7.35,7.35,0,0,1-3.32,6.38,11.75,11.75,0,0,1-3.7,1.6,18.75,18.75,0,0,1-4.66.5Z" transform="translate(0.12)" fill="#fff"/></svg>
